<?xml version="1.0" encoding="utf-8"?>
<!-- Generator: Adobe Illustrator 26.3.1, SVG Export Plug-In . SVG Version: 6.00 Build 0)  -->
<svg version="1.1" xmlns="http://www.w3.org/2000/svg" xmlns:xlink="http://www.w3.org/1999/xlink" x="0px" y="0px" width="700px"
	 height="579.6px" viewBox="0 0 700 579.6" style="enable-background:new 0 0 700 579.6;" xml:space="preserve">
<style type="text/css">
	.st0{fill:#307EB2;}
</style>
<g id="Layer_2">
	<g>
		<path class="st0" d="M351.2,148.4c-37.2,0-67.5-30.3-67.5-67.5s30.3-67.5,67.5-67.5c37.2,0,67.5,30.3,67.5,67.5
			S388.5,148.4,351.2,148.4z M351.2,23.6c-31.6,0-57.3,25.7-57.3,57.3c0,31.6,25.7,57.3,57.3,57.3c31.6,0,57.3-25.7,57.3-57.3
			C408.6,49.3,382.8,23.6,351.2,23.6z"/>
	</g>
	<g>
		<path class="st0" d="M351.2,289.7c-37.2,0-67.5-30.3-67.5-67.5s30.3-67.5,67.5-67.5c37.2,0,67.5,30.3,67.5,67.5
			S388.5,289.7,351.2,289.7z M351.2,164.9c-31.6,0-57.3,25.7-57.3,57.3c0,31.6,25.7,57.3,57.3,57.3c31.6,0,57.3-25.7,57.3-57.3
			C408.6,190.6,382.8,164.9,351.2,164.9z"/>
	</g>
	<g>
		<path class="st0" d="M351.2,428.1c-37.2,0-67.5-30.3-67.5-67.5s30.3-67.5,67.5-67.5c37.2,0,67.5,30.3,67.5,67.5
			S388.5,428.1,351.2,428.1z M351.2,303.3c-31.6,0-57.3,25.7-57.3,57.3c0,31.6,25.7,57.3,57.3,57.3c31.6,0,57.3-25.7,57.3-57.3
			C408.6,329,382.8,303.3,351.2,303.3z"/>
	</g>
	<g>
		<path class="st0" d="M351.2,567.4c-37.2,0-67.5-30.3-67.5-67.5s30.3-67.5,67.5-67.5c37.2,0,67.5,30.3,67.5,67.5
			S388.5,567.4,351.2,567.4z M351.2,442.6c-31.6,0-57.3,25.7-57.3,57.3s25.7,57.3,57.3,57.3c31.6,0,57.3-25.7,57.3-57.3
			S382.8,442.6,351.2,442.6z"/>
	</g>
	<g>
		<path class="st0" d="M84.1,219c-37.2,0-67.5-30.3-67.5-67.5S46.9,84,84.1,84s67.5,30.3,67.5,67.5S121.3,219,84.1,219z M84.1,94.2
			c-31.6,0-57.3,25.7-57.3,57.3c0,31.6,25.7,57.3,57.3,57.3c31.6,0,57.3-25.7,57.3-57.3C141.5,119.9,115.7,94.2,84.1,94.2z"/>
	</g>
	<g>
		<path class="st0" d="M84.1,358.4c-37.2,0-67.5-30.3-67.5-67.5s30.3-67.5,67.5-67.5s67.5,30.3,67.5,67.5S121.3,358.4,84.1,358.4z
			 M84.1,233.6c-31.6,0-57.3,25.7-57.3,57.3c0,31.6,25.7,57.3,57.3,57.3c31.6,0,57.3-25.7,57.3-57.3
			C141.5,259.3,115.7,233.6,84.1,233.6z"/>
	</g>
	<g>
		<path class="st0" d="M84.1,498.8c-37.2,0-67.5-30.3-67.5-67.5s30.3-67.5,67.5-67.5s67.5,30.3,67.5,67.5S121.3,498.8,84.1,498.8z
			 M84.1,374c-31.6,0-57.3,25.7-57.3,57.3c0,31.6,25.7,57.3,57.3,57.3c31.6,0,57.3-25.7,57.3-57.3C141.5,399.7,115.7,374,84.1,374z"
			/>
	</g>
	<g>
		<path class="st0" d="M618.4,289.7c-37.2,0-67.5-30.3-67.5-67.5s30.3-67.5,67.5-67.5s67.5,30.3,67.5,67.5S655.6,289.7,618.4,289.7z
			 M618.4,164.9c-31.6,0-57.3,25.7-57.3,57.3c0,31.6,25.7,57.3,57.3,57.3c31.6,0,57.3-25.7,57.3-57.3
			C675.7,190.6,650,164.9,618.4,164.9z"/>
	</g>
	<g>
		<path class="st0" d="M618.4,430.1c-37.2,0-67.5-30.3-67.5-67.5s30.3-67.5,67.5-67.5s67.5,30.3,67.5,67.5S655.6,430.1,618.4,430.1z
			 M618.4,305.3c-31.6,0-57.3,25.7-57.3,57.3c0,31.6,25.7,57.3,57.3,57.3c31.6,0,57.3-25.7,57.3-57.3
			C675.7,331.1,650,305.3,618.4,305.3z"/>
	</g>
</g>
<g id="Layer_3">
	<g>
		<g>
			
				<rect x="141.5" y="116.3" transform="matrix(0.8871 -0.4616 0.4616 0.8871 -32.6749 109.2425)" class="st0" width="130.8" height="10.2"/>
		</g>
		<g>
			<g>
				<polygon class="st0" points="256,78.5 270.3,105.9 276.8,85 				"/>
			</g>
		</g>
	</g>
	<g>
		<g>
			
				<rect x="203.6" y="110.3" transform="matrix(0.3387 -0.9409 0.9409 0.3387 -24.5342 310.573)" class="st0" width="10.2" height="124.8"/>
		</g>
		<g>
			<g>
				<polygon class="st0" points="270.7,178.6 260.2,207.7 280,198.4 				"/>
			</g>
		</g>
	</g>
	<g>
		<g>
			
				<rect x="212.3" y="124.2" transform="matrix(0.7586 -0.6516 0.6516 0.7586 -96.8724 196.9633)" class="st0" width="10.2" height="210.1"/>
		</g>
		<g>
			<g>
				<polygon class="st0" points="296.2,297.3 272.8,317.4 294.5,319 				"/>
			</g>
		</g>
	</g>
	<g>
		<g>
			
				<rect x="215.7" y="131.5" transform="matrix(0.8938 -0.4485 0.4485 0.8938 -107.389 130.0062)" class="st0" width="10.2" height="320.6"/>
		</g>
		<g>
			<g>
				<polygon class="st0" points="305.6,426.2 278,440.1 298.7,447 				"/>
			</g>
		</g>
	</g>
	<g>
		<g>
			
				<rect x="105.7" y="201.8" transform="matrix(0.597 -0.8022 0.8022 0.597 -81.1605 252.2127)" class="st0" width="209.6" height="10.2"/>
		</g>
		<g>
			<g>
				<polygon class="st0" points="259.4,115.3 284.2,133.7 281,112.1 				"/>
			</g>
		</g>
	</g>
	<g>
		<g>
			
				<rect x="143.4" y="260" transform="matrix(0.9117 -0.4109 0.4109 0.9117 -90.7209 108.1788)" class="st0" width="125.8" height="10.2"/>
		</g>
		<g>
			<g>
				<polygon class="st0" points="255.4,226 268.1,254.2 275.8,233.8 				"/>
			</g>
		</g>
	</g>
	<g>
		<g>
			
				<rect x="201.5" y="247.9" transform="matrix(0.3454 -0.9385 0.9385 0.3454 -156.1365 397.1666)" class="st0" width="10.2" height="125.2"/>
		</g>
		<g>
			<g>
				<polygon class="st0" points="268.7,316.9 258.1,345.9 277.9,336.7 				"/>
			</g>
		</g>
	</g>
	<g>
		<g>
			
				<rect x="206.2" y="268.1" transform="matrix(0.7771 -0.6293 0.6293 0.7771 -186.1019 215.544)" class="st0" width="10.2" height="204.8"/>
		</g>
		<g>
			<g>
				<polygon class="st0" points="286.4,438.8 262.4,458.2 284.1,460.5 				"/>
			</g>
		</g>
	</g>
	<g>
		<g>
			
				<rect x="199" y="393.4" transform="matrix(0.3661 -0.9306 0.9306 0.3661 -293.9836 478.2661)" class="st0" width="10.2" height="123"/>
		</g>
		<g>
			<g>
				<polygon class="st0" points="265,462.3 253.7,491.1 273.7,482.3 				"/>
			</g>
		</g>
	</g>
	<g>
		<g>
			
				<rect x="141.2" y="403.9" transform="matrix(0.9253 -0.3792 0.3792 0.9253 -139.8992 107.5349)" class="st0" width="123.8" height="10.2"/>
		</g>
		<g>
			<g>
				<polygon class="st0" points="252.5,372 264.3,400.6 272.7,380.4 				"/>
			</g>
		</g>
	</g>
	<g>
		<g>
			
				<rect x="111.2" y="353.3" transform="matrix(0.6689 -0.7433 0.7433 0.6689 -197.0167 274.3245)" class="st0" width="196.5" height="10.2"/>
		</g>
		<g>
			<g>
				<polygon class="st0" points="262.3,276.5 285.3,297.2 284.1,275.4 				"/>
			</g>
		</g>
	</g>
	<g>
		<g>
			
				<rect x="58.3" y="286.1" transform="matrix(0.4684 -0.8835 0.8835 0.4684 -141.8652 346.516)" class="st0" width="317.4" height="10.2"/>
		</g>
		<g>
			<g>
				<polygon class="st0" points="276.8,145.5 304.1,160 297.7,139.1 				"/>
			</g>
		</g>
	</g>
	<g>
		<g>
			
				<rect x="469.5" y="54.4" transform="matrix(0.6462 -0.7632 0.7632 0.6462 66.9969 408.928)" class="st0" width="10.2" height="155.6"/>
		</g>
		<g>
			<g>
				<polygon class="st0" points="542.3,169.4 522.4,192.9 544.1,191.1 				"/>
			</g>
		</g>
	</g>
	<g>
		<g>
			
				<rect x="478.8" y="62" transform="matrix(0.8495 -0.5276 0.5276 0.8495 -29.6666 284.5858)" class="st0" width="10.2" height="264.6"/>
		</g>
		<g>
			<g>
				<polygon class="st0" points="565.7,296.7 539.5,313 560.8,318 				"/>
			</g>
		</g>
	</g>
	<g>
		<g>
			<rect x="414.1" y="216.2" class="st0" width="116.6" height="10.2"/>
		</g>
		<g>
			<g>
				<polygon class="st0" points="528.7,205.8 528.7,236.7 544.1,221.3 				"/>
			</g>
		</g>
	</g>
	<g>
		<g>
			
				<rect x="470.1" y="193.7" transform="matrix(0.6614 -0.75 0.75 0.6614 -45.4552 449.5171)" class="st0" width="10.2" height="162.7"/>
		</g>
		<g>
			<g>
				<polygon class="st0" points="544.9,316 524.4,339.1 546.2,337.8 				"/>
			</g>
		</g>
	</g>
	<g>
		<g>
			
				<rect x="394.3" y="302.3" transform="matrix(0.7485 -0.6632 0.6632 0.7485 -84.8358 391.0512)" class="st0" width="157.6" height="10.2"/>
		</g>
		<g>
			<g>
				<polygon class="st0" points="520.3,244.9 540.7,268 542.1,246.2 				"/>
			</g>
		</g>
	</g>
	<g>
		<g>
			
				<rect x="412" y="354.6" transform="matrix(0.9999 -1.594849e-02 1.594849e-02 0.9999 -5.6771 7.5474)" class="st0" width="116.6" height="10.2"/>
		</g>
		<g>
			<g>
				<polygon class="st0" points="526.4,343.4 526.9,374.3 542.1,358.6 				"/>
			</g>
		</g>
	</g>
	<g>
		<g>
			
				<rect x="353.9" y="383.6" transform="matrix(0.5211 -0.8535 0.8535 0.5211 -100.9978 597.4222)" class="st0" width="256" height="10.2"/>
		</g>
		<g>
			<g>
				<polygon class="st0" points="534.3,273.2 560.7,289.3 555.6,268.1 				"/>
			</g>
		</g>
	</g>
	<g>
		<g>
			
				<rect x="394.8" y="443" transform="matrix(0.7702 -0.6377 0.6377 0.7702 -176.7651 405.5708)" class="st0" width="159.5" height="10.2"/>
		</g>
		<g>
			<g>
				<polygon class="st0" points="524.5,386.7 544.2,410.5 546.2,388.7 				"/>
			</g>
		</g>
	</g>
</g>
</svg>
